# xmcd CD database file
#
# Track frame offsets:
#	150
#	22412
#	44323
#	64696
#	83076
#	103507
#	126441
#	145188
#	163810
#	183069
#
# Disc length: 2746 seconds
#
# Revision: 0
# Processed by: cddbd v1.5.1PL0 Copyright (c) Steve Scherf et al.
# Submitted via: CDex 1.51
#
DISCID=870ab80a
DTITLE=オルゴール - Love Ballad 3_2
DYEAR=2004
DGENRE=Ballad
TTITLE0=かたちあるもの
TTITLE1=花
TTITLE2=スターゲイザー
TTITLE3=もらい泣き
TTITLE4=さくら（独唱）
TTITLE5=時の舟
TTITLE6=愛のままにわがままに　僕は君だけを傷つけない
TTITLE7=眠れぬ夜は君のせい
TTITLE8=夜空ノムコウ
TTITLE9=思いがかさなるその前に
EXTD=YEAR: 2004
EXTT0=
EXTT1=
EXTT2=
EXTT3=
EXTT4=
EXTT5=
EXTT6=
EXTT7=
EXTT8=
EXTT9=
PLAYORDER=
